<svg id="Ebene_1" data-name="Ebene 1" xmlns="http://www.w3.org/2000/svg" viewBox="0 0 1322.96 383.06"><defs><style>.cls-1{fill:#333;}</style></defs><title>shapo</title><path class="cls-1" d="M133.36,262.4a68.7,68.7,0,0,1,15.94,5.49,147.59,147.59,0,0,1,13.94,8.35q10.14,6.12,14.78,6.12,4,0,6.13-4.64t3.38-14.57h9.92q-2.12,22.59-2.11,79.61h-9.93a106.86,106.86,0,0,0-9.61-36.64,67,67,0,0,0-23.22-27.25q-15.32-10.44-38.11-10.45A63.93,63.93,0,0,0,87.23,274a45.83,45.83,0,0,0-18.8,15.31,37.41,37.41,0,0,0-6.76,22q0,13.51,6.76,23.33a63.82,63.82,0,0,0,17.31,16.9q10.56,7.08,30.2,17.84,9.5,4.86,13.94,7.6,26.81,14.15,43.18,25.55a100.62,100.62,0,0,1,26.19,25.87q9.81,14.46,9.81,33.46,0,23.66-11.82,40.23t-32,24.91q-20.16,8.37-44.87,8.36-20.7,0-34-4.32a113.47,113.47,0,0,1-25.13-11.73q-9.72-6.12-14.79-6.12-4,0-6.12,4.54T37,532.17H27q1.7-21.1,1.69-95h9.92q3,40.11,21.53,64.82t57.23,24.71a64.11,64.11,0,0,0,25.86-5.28A45.74,45.74,0,0,0,163,505.14q7.59-11,7.6-27.45a40.74,40.74,0,0,0-8.34-25.34,84.29,84.29,0,0,0-22.07-19.75q-13.74-8.75-38.43-21.43a317.62,317.62,0,0,1-38.33-22.7,92,92,0,0,1-24.8-25.87q-9.49-15-9.49-34.84,0-21.52,11.18-36.85a68.62,68.62,0,0,1,29.67-23,104,104,0,0,1,40.44-7.71A104.08,104.08,0,0,1,133.36,262.4Z" transform="translate(-27.04 -152.28)"/><path class="cls-1" d="M509,278.35a16.14,16.14,0,0,0-9.72,10.13q-2.62,7.39-2.64,23.65V483.39q0,16.26,2.64,23.65A16.17,16.17,0,0,0,509,517.18q7.1,2.75,22.7,3.38v8.66q-17.94-1.28-55.32-1.27-34.65,0-54.91,1.27v-8.66q15.63-.63,22.7-3.38A16.16,16.16,0,0,0,453.91,507q2.64-7.4,2.64-23.65V397.23h-132v86.16q0,16.26,2.64,23.65a16.16,16.16,0,0,0,9.72,10.14q7.08,2.75,22.7,3.38v8.66q-19.86-1.28-54.91-1.27-37.17,0-55.32,1.27v-8.66q15.63-.63,22.7-3.38A16.17,16.17,0,0,0,281.81,507q2.64-7.4,2.64-23.65V312.13q0-16.26-2.64-23.65a16.18,16.18,0,0,0-9.71-10.13Q265,275.6,249.4,275v-8.66q17.94,1.26,55.32,1.27,35.05,0,54.91-1.27V275q-15.63.63-22.7,3.37a16.18,16.18,0,0,0-9.72,10.14q-2.64,7.39-2.64,23.65v76.45h132V312.13q0-16.26-2.64-23.65a16.17,16.17,0,0,0-9.71-10.14q-7.09-2.73-22.7-3.37v-8.66q20.26,1.26,54.9,1.27,37.37,0,55.33-1.27V275Q516.08,275.6,509,278.35Z" transform="translate(-27.04 -152.28)"/><path class="cls-1" d="M817.87,520.55v8.66Q800.13,528,771.62,528q-37.17,0-55.53,1.26v-8.66q16.26-.63,23.65-4t7.39-11.82q0-7.82-5.92-20.49L719.48,435H613.87L599.3,467.34Q592.12,484,592.12,495q0,22.81,33.58,25.55v8.66Q612.82,528,586.42,528t-37.59,1.26v-8.66q11.4-3,19.85-13.19t15.64-26.92l95.44-216.23h7L787.87,492.89Q799.71,519.71,817.87,520.55Zm-151-204.19-49.2,110h98Z" transform="translate(-27.04 -152.28)"/><path class="cls-1" d="M909.71,483.39q0,16.26,2.64,23.65a16.22,16.22,0,0,0,9.71,10.14q7.1,2.75,22.7,3.37v8.66Q924.92,528,889.86,528q-37.17,0-55.33,1.26v-8.66q15.63-.63,22.7-3.37A16.18,16.18,0,0,0,867,507q2.64-7.4,2.64-23.65V312.13q0-16.26-2.64-23.65a16.17,16.17,0,0,0-9.72-10.13q-7.08-2.75-22.7-3.38v-8.66q17.94,1.26,52.79,1.27,7.6,0,46.88-.64l18.37-.21q31,0,52.58,9.08t32.31,25.34q10.77,16.28,10.77,37.8a83.22,83.22,0,0,1-10.14,39.7q-10.12,19-34.63,31.57t-64.61,12.57H909.71ZM921.53,278q-6.76,3.06-9.28,10.87t-2.54,23.23v102h24.7q40.13,0,55.33-18.9T1005,343.6q0-35-14.67-51.84T941.81,275q-13.51,0-20.27,3.06Z" transform="translate(-27.04 -152.28)"/><path class="cls-1" d="M1287.07,276.13a111.38,111.38,0,0,1,46.46,46.35q16.48,30.4,16.47,72.64,0,41.38-17,73.17a123,123,0,0,1-47.3,49.41q-30.3,17.64-69,17.64-39.91,0-69.79-15.94a111.47,111.47,0,0,1-46.35-46.35q-16.47-30.41-16.47-72.64,0-41.39,17-73.28t47.19-49.41q30.2-17.54,68.84-17.53Q1257.09,260.19,1287.07,276.13Zm-118,8.44q-20.07,16.59-30.94,46.25t-10.88,67.89q0,38.44,12.15,67.79t32.94,45.18q20.79,15.85,46.15,15.85A70.81,70.81,0,0,0,1264.91,511q20.05-16.57,30.93-46.24t10.88-67.89q0-38.43-12.14-67.79t-32.95-45.19Q1240.84,268,1215.49,268A70.7,70.7,0,0,0,1169,284.57Zm102.63-132.29q8.86,0,13.3,7.18a14.51,14.51,0,0,1,2.53,8.24q0,9.28-11.61,16.89-7.82,4.86-31.25,14.15-31.05,12-55.54,24.28l-3.18-5.7q20.7-15.63,46.46-39.07,16.47-15.41,26.19-21.74Q1265.54,152.28,1271.66,152.28Z" transform="translate(-27.04 -152.28)"/></svg>